# Blender 4.1.1
# www.blender.org
mtllib Goal.mtl
o Goal
v 0.000640 -0.000696 0.025043
v 0.000640 0.500696 0.025043
v -0.500640 -0.000696 0.025043
v -0.500640 0.500696 0.025043
v 0.000640 -0.000696 -0.025043
v 0.000640 0.500696 -0.025043
v -0.500640 -0.000696 -0.025043
v -0.500640 0.500696 -0.025043
v -0.250000 -0.000696 0.025043
v -0.250000 0.500696 0.025043
v -0.250000 -0.000696 -0.025043
v -0.250000 0.500696 -0.025043
v -0.124680 -0.000696 -0.024834
v -0.124680 0.500696 -0.074919
v -0.124680 0.500696 -0.024834
v -0.124680 -0.000696 -0.074919
v -0.373298 0.500696 0.079688
v -0.373298 -0.000696 0.029603
v -0.373298 -0.000696 0.079688
v -0.373298 0.500696 0.029603
v -0.288269 -0.500000 -0.288269
v 0.288269 -0.500000 -0.288269
v -0.288269 -0.500000 0.288269
v 0.288269 -0.500000 0.288269
v -0.263489 -0.375048 -0.263489
v -0.288269 -0.418029 -0.288269
v 0.263489 -0.375048 -0.263489
v 0.288269 -0.418029 -0.288269
v -0.263489 -0.375048 0.263489
v -0.288269 -0.418029 0.288269
v 0.263489 -0.375048 0.263489
v 0.288269 -0.418029 0.288269
v -0.038192 -0.500000 0.000000
v -0.038192 0.500000 -0.000000
v -0.037458 -0.500000 -0.007451
v -0.037458 0.500000 -0.007451
v -0.035285 -0.500000 -0.014616
v -0.035285 0.500000 -0.014616
v -0.031755 -0.500000 -0.021218
v -0.031755 0.500000 -0.021218
v -0.027005 -0.500000 -0.027005
v -0.027005 0.500000 -0.027005
v -0.021218 -0.500000 -0.031755
v -0.021218 0.500000 -0.031755
v -0.014616 -0.500000 -0.035285
v -0.014616 0.500000 -0.035285
v -0.007451 -0.500000 -0.037458
v -0.007451 0.500000 -0.037458
v 0.000000 -0.500000 -0.038192
v 0.000000 0.500000 -0.038192
v 0.007451 -0.500000 -0.037458
v 0.007451 0.500000 -0.037458
v 0.014616 -0.500000 -0.035285
v 0.014616 0.500000 -0.035285
v 0.021218 -0.500000 -0.031755
v 0.021218 0.500000 -0.031755
v 0.027005 -0.500000 -0.027005
v 0.027005 0.500000 -0.027005
v 0.031755 -0.500000 -0.021218
v 0.031755 0.500000 -0.021218
v 0.035285 -0.500000 -0.014616
v 0.035285 0.500000 -0.014616
v 0.037458 -0.500000 -0.007451
v 0.037458 0.500000 -0.007451
v 0.038192 -0.500000 0.000000
v 0.038192 0.500000 -0.000000
v 0.037458 -0.500000 0.007451
v 0.037458 0.500000 0.007451
v 0.035285 -0.500000 0.014616
v 0.035285 0.500000 0.014616
v 0.031755 -0.500000 0.021218
v 0.031755 0.500000 0.021218
v 0.027005 -0.500000 0.027005
v 0.027005 0.500000 0.027005
v 0.021218 -0.500000 0.031755
v 0.021218 0.500000 0.031755
v 0.014616 -0.500000 0.035285
v 0.014616 0.500000 0.035285
v 0.007451 -0.500000 0.037458
v 0.007451 0.500000 0.037458
v 0.000000 -0.500000 0.038192
v 0.000000 0.500000 0.038192
v -0.007451 -0.500000 0.037458
v -0.007451 0.500000 0.037458
v -0.014616 -0.500000 0.035285
v -0.014616 0.500000 0.035285
v -0.021218 -0.500000 0.031755
v -0.021218 0.500000 0.031755
v -0.027005 -0.500000 0.027005
v -0.027005 0.500000 0.027005
v -0.031755 -0.500000 0.021218
v -0.031755 0.500000 0.021218
v -0.035285 -0.500000 0.014616
v -0.035285 0.500000 0.014616
v -0.037458 -0.500000 0.007451
v -0.037458 0.500000 0.007451
vn -0.3943 -0.0000 0.9190
vn -1.0000 -0.0000 -0.0000
vn 0.3698 -0.0000 -0.9291
vn 1.0000 -0.0000 -0.0000
vn -0.0000 -1.0000 -0.0000
vn -0.0000 1.0000 -0.0000
vn -0.4052 -0.0000 -0.9142
vn 0.3698 -0.0000 0.9291
vn -0.3698 -0.0000 0.9291
vn -0.3698 -0.0000 -0.9291
vn 0.3944 -0.0000 -0.9190
vn 0.4052 -0.0000 0.9142
vn -0.9952 -0.0000 -0.0980
vn -0.9570 -0.0000 -0.2902
vn -0.8819 -0.0000 -0.4715
vn -0.7730 -0.0000 -0.6345
vn -0.6345 -0.0000 -0.7730
vn -0.4715 -0.0000 -0.8819
vn -0.2902 -0.0000 -0.9570
vn -0.0980 -0.0000 -0.9952
vn 0.0980 -0.0000 -0.9952
vn 0.2902 -0.0000 -0.9570
vn 0.4715 -0.0000 -0.8819
vn 0.6345 -0.0000 -0.7730
vn 0.7730 -0.0000 -0.6345
vn 0.8819 -0.0000 -0.4715
vn 0.9570 -0.0000 -0.2902
vn 0.9952 -0.0000 -0.0980
vn 0.9952 -0.0000 0.0980
vn 0.9570 -0.0000 0.2902
vn 0.8819 -0.0000 0.4715
vn 0.7730 -0.0000 0.6345
vn 0.6345 -0.0000 0.7730
vn 0.4715 -0.0000 0.8819
vn 0.2902 -0.0000 0.9570
vn 0.0980 -0.0000 0.9952
vn -0.0980 -0.0000 0.9952
vn -0.2902 -0.0000 0.9570
vn -0.4715 -0.0000 0.8819
vn -0.6345 -0.0000 0.7730
vn -0.7730 -0.0000 0.6345
vn -0.8819 -0.0000 0.4715
vn -0.9570 -0.0000 0.2902
vn -0.9952 -0.0000 0.0980
vn -0.0000 -0.0000 1.0000
vn -0.0000 -0.0000 -1.0000
vn 0.8663 0.4995 -0.0000
vn -0.0000 0.4995 -0.8663
vn -0.0000 0.4995 0.8663
vn -0.8663 0.4995 -0.0000
vt 0.670749 0.353295
vt 0.893777 0.291656
vt 0.893777 0.353295
vt 0.670749 0.291656
vt 0.893777 0.269377
vt 0.685413 0.084847
vt 0.891871 0.029370
vt 0.880965 0.089634
vt 0.673741 0.029066
vt 0.891901 0.007581
vt 0.902371 0.089451
vt 0.915889 0.025213
vt 0.663920 0.085309
vt 0.659577 0.208547
vt 0.652573 0.147803
vt 0.674637 0.143671
vt 0.906087 0.204287
vt 0.913215 0.147592
vt 0.929413 0.204283
vt 0.892743 0.143964
vt 0.670749 0.473283
vt 0.893777 0.413286
vt 0.893777 0.473283
vt 0.670749 0.533280
vt 0.893777 0.533280
vt 0.670749 0.269377
vt 0.913951 0.265158
vt 0.651959 0.265753
vt 0.670749 0.413286
vt 0.742495 0.991403
vt 0.739174 0.547834
vt 0.742495 0.547834
vt 0.739174 0.991404
vt 0.735853 0.547834
vt 0.735853 0.991404
vt 0.732532 0.547834
vt 0.732532 0.991404
vt 0.729211 0.547834
vt 0.729211 0.991404
vt 0.725890 0.547834
vt 0.725890 0.991404
vt 0.722569 0.547834
vt 0.722569 0.991404
vt 0.719248 0.547834
vt 0.719248 0.991404
vt 0.715927 0.547834
vt 0.715927 0.991404
vt 0.712607 0.547834
vt 0.712607 0.991404
vt 0.709286 0.547834
vt 0.709286 0.991404
vt 0.705965 0.547834
vt 0.705965 0.991404
vt 0.702644 0.547834
vt 0.702644 0.991404
vt 0.699323 0.547834
vt 0.699323 0.991404
vt 0.696002 0.547834
vt 0.696002 0.991404
vt 0.692681 0.547834
vt 0.692681 0.991404
vt 0.689360 0.547834
vt 0.689360 0.991404
vt 0.686039 0.547834
vt 0.686039 0.991404
vt 0.682718 0.547834
vt 0.682718 0.991404
vt 0.679397 0.547834
vt 0.679397 0.991404
vt 0.676076 0.547834
vt 0.676076 0.991404
vt 0.672755 0.547834
vt 0.672755 0.991404
vt 0.669434 0.547834
vt 0.669434 0.991404
vt 0.666113 0.547834
vt 0.666113 0.991404
vt 0.662792 0.547834
vt 0.662792 0.991404
vt 0.659471 0.547834
vt 0.659471 0.991404
vt 0.656150 0.547834
vt 0.656150 0.991404
vt 0.652829 0.547834
vt 0.652829 0.991404
vt 0.649508 0.547834
vt 0.649508 0.991404
vt 0.646187 0.547834
vt 0.646187 0.991404
vt 0.642866 0.547834
vt 0.763161 0.551598
vt 0.787003 0.553946
vt 0.784655 0.577788
vt 0.642866 0.991404
vt 0.639545 0.547834
vt 0.639545 0.991404
vt 0.636224 0.547834
vt 0.757697 0.608047
vt 0.765922 0.598024
vt 0.778826 0.596754
vt 0.224166 0.266544
vt 0.137552 0.007277
vt 0.258581 0.249336
vt 0.587255 0.992723
vt 0.500641 0.733456
vt 0.621671 0.975515
vt 0.379611 0.491396
vt 0.500641 0.128307
vt 0.621671 0.370366
vt 0.127020 0.576165
vt 0.208538 0.287363
vt 0.319164 0.508615
vt 0.345195 0.508604
vt 0.033668 0.419973
vt 0.203409 0.261653
vt 0.007277 0.415200
vt 0.119689 0.598718
vt 0.466225 0.750663
vt 0.673771 0.007277
vt 0.651256 0.025178
vt 0.636225 0.208353
vt 0.781894 0.579633
vt 0.772248 0.581552
vt 0.778826 0.580904
vt 0.775568 0.581552
vt 0.768990 0.580904
vt 0.765922 0.579633
vt 0.763161 0.577788
vt 0.760813 0.575440
vt 0.758968 0.572679
vt 0.757697 0.569611
vt 0.757049 0.566353
vt 0.757049 0.563032
vt 0.757697 0.559775
vt 0.758968 0.556707
vt 0.760813 0.553946
vt 0.765922 0.549753
vt 0.775568 0.547834
vt 0.768990 0.548482
vt 0.772247 0.547834
vt 0.778826 0.548482
vt 0.781894 0.549753
vt 0.784655 0.551598
vt 0.788848 0.556707
vt 0.790119 0.559775
vt 0.790767 0.563032
vt 0.790767 0.566353
vt 0.790119 0.569611
vt 0.788848 0.572679
vt 0.787003 0.575440
vt 0.636224 0.991403
vt 0.781894 0.598024
vt 0.784655 0.599869
vt 0.787003 0.602218
vt 0.788848 0.604979
vt 0.790119 0.608047
vt 0.790119 0.617882
vt 0.790767 0.611304
vt 0.790767 0.614625
vt 0.788848 0.620951
vt 0.787003 0.623712
vt 0.784655 0.626060
vt 0.781894 0.627905
vt 0.778826 0.629176
vt 0.768990 0.629176
vt 0.775569 0.629824
vt 0.772247 0.629824
vt 0.765922 0.627905
vt 0.763161 0.626060
vt 0.760813 0.623712
vt 0.758968 0.620951
vt 0.757697 0.617883
vt 0.757049 0.614625
vt 0.757049 0.611304
vt 0.758968 0.604979
vt 0.760813 0.602218
vt 0.763161 0.599870
vt 0.768990 0.596754
vt 0.772247 0.596106
vt 0.775568 0.596106
vt 0.103136 0.024485
vt 0.334848 0.523915
s 1
usemtl マテリアル
f 17/1/1 3/2/1 19/3/1
f 4/4/2 7/5/2 3/2/2
f 14/6/3 5/7/3 16/8/3
f 6/9/4 1/10/4 5/7/4
f 13/11/5 5/7/5 1/12/5
f 15/13/6 6/9/6 14/6/6
f 20/14/6 10/15/6 12/16/6
f 18/17/5 9/18/5 19/19/5
f 20/14/7 11/20/7 18/17/7
f 15/21/8 9/22/8 13/23/8
f 2/24/9 13/23/9 1/25/9
f 12/16/6 15/13/6 14/6/6
f 11/20/5 13/11/5 9/18/5
f 12/16/10 16/8/10 11/20/10
f 8/26/11 18/17/11 7/5/11
f 3/27/5 18/17/5 19/19/5
f 4/28/6 20/14/6 8/26/6
f 10/29/12 19/3/12 9/22/12
f 34/30/13 35/31/13 33/32/13
f 36/33/14 37/34/14 35/31/14
f 38/35/15 39/36/15 37/34/15
f 40/37/16 41/38/16 39/36/16
f 42/39/17 43/40/17 41/38/17
f 44/41/18 45/42/18 43/40/18
f 46/43/19 47/44/19 45/42/19
f 48/45/20 49/46/20 47/44/20
f 50/47/21 51/48/21 49/46/21
f 52/49/22 53/50/22 51/48/22
f 54/51/23 55/52/23 53/50/23
f 56/53/24 57/54/24 55/52/24
f 58/55/25 59/56/25 57/54/25
f 60/57/26 61/58/26 59/56/26
f 62/59/27 63/60/27 61/58/27
f 64/61/28 65/62/28 63/60/28
f 66/63/29 67/64/29 65/62/29
f 68/65/30 69/66/30 67/64/30
f 70/67/31 71/68/31 69/66/31
f 72/69/32 73/70/32 71/68/32
f 74/71/33 75/72/33 73/70/33
f 76/73/34 77/74/34 75/72/34
f 78/75/35 79/76/35 77/74/35
f 80/77/36 81/78/36 79/76/36
f 82/79/37 83/80/37 81/78/37
f 84/81/38 85/82/38 83/80/38
f 86/83/39 87/84/39 85/82/39
f 88/85/40 89/86/40 87/84/40
f 90/87/41 91/88/41 89/86/41
f 92/89/42 93/90/42 91/88/42
f 70/91/6 54/92/6 38/93/6
f 94/94/43 95/95/43 93/90/43
f 96/96/44 33/97/44 95/95/44
f 79/98/5 87/99/5 95/100/5
f 28/101/4 24/102/4 22/103/4
f 32/104/45 23/105/45 24/106/45
f 21/107/5 24/108/5 23/109/5
f 29/110/6 27/111/6 25/112/6
f 26/113/46 22/103/46 21/107/46
f 31/114/47 28/115/47 27/111/47
f 27/111/48 26/113/48 25/112/48
f 29/110/49 32/116/49 31/114/49
f 25/112/50 30/117/50 29/110/50
f 30/118/2 21/107/2 23/105/2
f 17/1/1 4/4/1 3/2/1
f 4/4/2 8/26/2 7/5/2
f 14/6/3 6/9/3 5/7/3
f 6/9/4 2/119/4 1/10/4
f 13/11/5 16/8/5 5/7/5
f 15/13/6 2/120/6 6/9/6
f 20/14/6 17/121/6 10/15/6
f 18/17/5 11/20/5 9/18/5
f 20/14/7 12/16/7 11/20/7
f 15/21/8 10/29/8 9/22/8
f 2/24/9 15/21/9 13/23/9
f 12/16/6 10/15/6 15/13/6
f 11/20/5 16/8/5 13/11/5
f 12/16/10 14/6/10 16/8/10
f 8/26/11 20/14/11 18/17/11
f 3/27/5 7/5/5 18/17/5
f 4/28/6 17/121/6 20/14/6
f 10/29/12 17/1/12 19/3/12
f 34/30/13 36/33/13 35/31/13
f 36/33/14 38/35/14 37/34/14
f 38/35/15 40/37/15 39/36/15
f 40/37/16 42/39/16 41/38/16
f 42/39/17 44/41/17 43/40/17
f 44/41/18 46/43/18 45/42/18
f 46/43/19 48/45/19 47/44/19
f 48/45/20 50/47/20 49/46/20
f 50/47/21 52/49/21 51/48/21
f 52/49/22 54/51/22 53/50/22
f 54/51/23 56/53/23 55/52/23
f 56/53/24 58/55/24 57/54/24
f 58/55/25 60/57/25 59/56/25
f 60/57/26 62/59/26 61/58/26
f 62/59/27 64/61/27 63/60/27
f 64/61/28 66/63/28 65/62/28
f 66/63/29 68/65/29 67/64/29
f 68/65/30 70/67/30 69/66/30
f 70/67/31 72/69/31 71/68/31
f 72/69/32 74/71/32 73/70/32
f 74/71/33 76/73/33 75/72/33
f 76/73/34 78/75/34 77/74/34
f 78/75/35 80/77/35 79/76/35
f 80/77/36 82/79/36 81/78/36
f 82/79/37 84/81/37 83/80/37
f 84/81/38 86/83/38 85/82/38
f 86/83/39 88/85/39 87/84/39
f 88/85/40 90/87/40 89/86/40
f 90/87/41 92/89/41 91/88/41
f 92/89/42 94/94/42 93/90/42
f 38/93/6 36/122/6 94/123/6
f 36/122/6 34/124/6 94/123/6
f 34/124/6 96/125/6 94/123/6
f 94/123/6 92/126/6 90/127/6
f 90/127/6 88/128/6 86/129/6
f 86/129/6 84/130/6 82/131/6
f 82/131/6 80/132/6 86/129/6
f 80/132/6 78/133/6 86/129/6
f 78/133/6 76/134/6 74/135/6
f 74/135/6 72/136/6 70/91/6
f 70/91/6 68/137/6 62/138/6
f 68/137/6 66/139/6 62/138/6
f 66/139/6 64/140/6 62/138/6
f 62/138/6 60/141/6 58/142/6
f 58/142/6 56/143/6 54/92/6
f 54/92/6 52/144/6 50/145/6
f 50/145/6 48/146/6 54/92/6
f 48/146/6 46/147/6 54/92/6
f 46/147/6 44/148/6 42/149/6
f 42/149/6 40/150/6 38/93/6
f 94/123/6 90/127/6 38/93/6
f 90/127/6 86/129/6 38/93/6
f 78/133/6 74/135/6 86/129/6
f 74/135/6 70/91/6 86/129/6
f 62/138/6 58/142/6 70/91/6
f 58/142/6 54/92/6 70/91/6
f 46/147/6 42/149/6 54/92/6
f 42/149/6 38/93/6 54/92/6
f 38/93/6 86/129/6 70/91/6
f 94/94/43 96/96/43 95/95/43
f 96/96/44 34/151/44 33/97/44
f 95/100/5 33/152/5 35/153/5
f 35/153/5 37/154/5 39/155/5
f 39/155/5 41/156/5 47/157/5
f 41/156/5 43/158/5 47/157/5
f 43/158/5 45/159/5 47/157/5
f 47/157/5 49/160/5 51/161/5
f 51/161/5 53/162/5 55/163/5
f 55/163/5 57/164/5 63/165/5
f 57/164/5 59/166/5 63/165/5
f 59/166/5 61/167/5 63/165/5
f 63/165/5 65/168/5 67/169/5
f 67/169/5 69/170/5 71/171/5
f 71/171/5 73/172/5 79/98/5
f 73/172/5 75/173/5 79/98/5
f 75/173/5 77/174/5 79/98/5
f 79/98/5 81/175/5 83/176/5
f 83/176/5 85/177/5 87/99/5
f 87/99/5 89/178/5 95/100/5
f 89/178/5 91/179/5 95/100/5
f 91/179/5 93/180/5 95/100/5
f 95/100/5 35/153/5 39/155/5
f 47/157/5 51/161/5 55/163/5
f 63/165/5 67/169/5 71/171/5
f 79/98/5 83/176/5 87/99/5
f 95/100/5 39/155/5 63/165/5
f 39/155/5 47/157/5 63/165/5
f 47/157/5 55/163/5 63/165/5
f 63/165/5 71/171/5 95/100/5
f 71/171/5 79/98/5 95/100/5
f 28/101/4 32/181/4 24/102/4
f 32/104/45 30/118/45 23/105/45
f 21/107/5 22/103/5 24/108/5
f 29/110/6 31/114/6 27/111/6
f 26/113/46 28/101/46 22/103/46
f 31/114/47 32/116/47 28/115/47
f 27/111/48 28/101/48 26/113/48
f 29/110/49 30/117/49 32/116/49
f 25/112/50 26/182/50 30/117/50
f 30/118/2 26/113/2 21/107/2
